# xmcd
#
# Track frame offsets:
#	150
#	19083
#	33835
#	50431
#	74575
#	93189
#	111644
#	130615
#	148216
#	159065
#	172055
#
# Disc length: 2595 seconds
#
# Revision: 1
# Processed by: cddbd v1.5PL3 Copyright (c) Steve Scherf et al.
# Submitted via: audiograbber 1.83.01
#
DISCID=940a210b
DTITLE=garth brooks - fresh horses (limited series)
DYEAR=1900
DGENRE=country
TTITLE0=the old stuff
TTITLE1=cowboys and angels
TTITLE2=the fever
TTITLE3=that ol' wind
TTITLE4=rollin'
TTITLE5=the change
TTITLE6=the beaches of cheyenne
TTITLE7=to make you feel my love
TTITLE8=it's midnight cinderella
TTITLE9=she's every woman
TTITLE10=ireland
EXTD=
EXTT0=
EXTT1=
EXTT2=
EXTT3=
EXTT4=
EXTT5=
EXTT6=
EXTT7=
EXTT8=
EXTT9=
EXTT10=
PLAYORDER=
